# xmcd
#
# Track frame offsets: 
#        150
#        16514
#        36939
#        56523
#        76823
#        99590
#        121417
#        141632
#        161969
#        181636
#        202643
#        222100
#        243874
#        263908
#        286915
#        309300
#        327020
#
# Disc length: 4623 seconds
#
# Revision: 0
# Processed by: cddbd v1.4PL0 Copyright (c) Steve Scherf et al.
# Submitted via: ExactAudioCopy v0.95a3
#
DISCID=dd120d11
DTITLE=Toni Braxton and Kenny G - How could An Angle Break My Heart(US #
DTITLE=2)
DYEAR=1900
DGENRE=R&B
TTITLE0=Come on Over Here
TTITLE1=Un-Break My Heart
TTITLE2=There's No Me Without you
TTITLE3=Find Me a Man
TTITLE4=Another Sad  Love Song
TTITLE5=Spanish Guiltar
TTITLE6=Your Making Me High
TTITLE7=Breathe Again
TTITLE8=how Could An Angle Break My Heart
TTITLE9=Candlelight
TTITLE10=I Don't Want to
TTITLE11=How Many Ways
TTITLE12=Best Friend
TTITLE13=I Love Me Some Him
TTITLE14=You Mean The World To Me
TTITLE15=I Belong To You
TTITLE16=He wasn't Man Enough
EXTD=
EXTT0=
EXTT1=
EXTT2=
EXTT3=
EXTT4=
EXTT5=
EXTT6=
EXTT7=
EXTT8=
EXTT9=
EXTT10=
EXTT11=
EXTT12=
EXTT13=
EXTT14=
EXTT15=
EXTT16=
PLAYORDER=
